<?xml version="1.0" standalone="no"?>
<!DOCTYPE svg PUBLIC "-//W3C//DTD SVG 20010904//EN"
 "http://www.w3.org/TR/2001/REC-SVG-20010904/DTD/svg10.dtd">
<svg version="1.0" xmlns="http://www.w3.org/2000/svg"
 width="1079.000000pt" height="900.000000pt" viewBox="0 0 1079.000000 900.000000"
 preserveAspectRatio="xMidYMid meet">
<metadata>
Created by potrace 1.16, written by Peter Selinger 2001-2019
</metadata>
<g transform="translate(0.000000,900.000000) scale(0.100000,-0.100000)"
fill="#000000" stroke="none">
<path d="M3493 7622 l-213 -2 0 -1487 0 -1488 -1138 -1140 c-1228 -1230 -1179
-1177 -1217 -1320 -19 -75 -19 -219 0 -310 17 -80 81 -214 157 -330 158 -241
533 -531 762 -590 260 -66 461 12 657 257 89 111 36 58 819 828 349 344 735
725 858 847 220 217 227 223 376 313 219 132 243 148 338 222 179 140 287 287
350 473 20 62 23 88 22 220 0 112 -5 165 -18 210 -10 33 -21 74 -26 90 -4 17
-23 73 -41 125 l-34 95 0 1482 c0 975 -3 1485 -10 1491 -10 10 -1207 20 -1642
14z m1621 -48 c3 -9 6 -665 6 -1458 0 -1362 -1 -1444 -17 -1458 -10 -8 -58
-29 -108 -47 -49 -19 -121 -49 -160 -69 -38 -19 -110 -50 -160 -69 -49 -19
-116 -48 -147 -64 -32 -16 -64 -29 -73 -29 -23 0 -30 -27 -15 -58 7 -15 39
-103 70 -197 32 -93 72 -208 90 -255 17 -47 54 -149 81 -228 27 -79 56 -156
64 -172 8 -15 17 -45 20 -66 l6 -39 -73 -46 c-40 -25 -111 -68 -158 -95 -47
-26 -103 -61 -125 -77 -37 -26 -632 -605 -990 -962 -82 -83 -314 -310 -514
-505 -212 -208 -378 -378 -399 -410 -47 -71 -163 -188 -227 -229 -151 -96
-387 -100 -565 -11 -162 82 -400 267 -516 402 -80 94 -127 164 -183 276 -56
110 -72 172 -78 297 -8 160 15 241 101 354 23 30 541 557 1153 1170 l1112
1116 1 1473 0 1472 899 0 c810 0 899 -2 905 -16z m51 -3071 c19 -65 39 -134
44 -153 5 -19 15 -55 21 -79 17 -63 15 -264 -3 -332 -23 -87 -76 -206 -115
-258 -70 -94 -267 -281 -296 -281 -18 0 11 -76 -234 625 -39 110 -79 224 -91
252 -22 56 -20 78 7 86 22 7 248 106 337 147 102 48 257 109 277 110 13 0 25
-27 53 -117z"/>
<path d="M6063 7623 l-343 -3 0 -1480 0 -1480 -26 -67 c-130 -341 -141 -599
-34 -814 67 -136 181 -266 333 -380 47 -34 171 -115 275 -178 l191 -116 598
-591 c855 -845 1243 -1235 1283 -1289 58 -77 180 -186 244 -216 89 -42 150
-51 319 -47 143 3 156 5 217 33 165 75 324 190 486 350 192 191 308 396 344
613 18 108 -5 222 -71 355 -27 55 -155 186 -1162 1195 l-1132 1132 0 1480 c0
973 -3 1482 -10 1488 -11 10 -942 19 -1512 15z m1485 -1513 l2 -1475 1126
-1125 c792 -792 1135 -1142 1160 -1182 62 -102 85 -180 85 -295 1 -100 -4
-124 -44 -233 -94 -255 -319 -509 -616 -695 -171 -107 -247 -126 -452 -114
-87 5 -141 14 -180 28 -72 27 -215 147 -263 222 -20 30 -145 163 -279 295
-133 131 -548 541 -922 911 -425 420 -704 688 -745 716 -36 24 -110 70 -165
101 -118 68 -165 102 -165 120 0 15 45 160 60 191 14 32 76 204 101 280 12 39
39 113 59 165 48 121 110 307 110 330 0 20 -63 53 -225 118 -55 22 -143 60
-195 84 -52 25 -124 55 -160 68 -36 12 -73 32 -82 42 -17 19 -18 103 -18 1467
0 796 3 1451 7 1454 3 4 410 6 902 5 l896 -3 3 -1475z m-1683 -1536 c61 -25
139 -60 175 -76 36 -17 108 -48 160 -70 163 -68 180 -78 180 -96 0 -22 -40
-147 -78 -242 -16 -41 -55 -149 -86 -240 -31 -91 -61 -174 -66 -185 -5 -11
-27 -72 -50 -135 -23 -63 -45 -119 -50 -124 -21 -21 -236 175 -307 279 -76
112 -95 164 -119 315 -14 88 -15 117 -4 194 17 136 41 231 97 384 9 23 21 42
27 42 6 0 61 -21 121 -46z"/>
</g>
</svg>
